# xmcd
#
# Track frame offsets:
#	225
#	12654
#	26217
#	37842
#	56597
#	64443
#	78607
#	92440
#	109156
#	123141
#	142332
#	159379
#	170402
#	181226
#	194351
#	203452
#	216061
#	240610
#	255325
#	267177
#	280057
#	299758
#	310244
#
# Disc length: 4384 seconds
#
# Revision: 0
# Processed by: cddbd v1.5.2PL0 Copyright (c) Steve Scherf et al.
# Submitted via: audiograbber 1.83.01
#
DISCID=50111d17
DTITLE=Mantovani& His Orchestra - Continental Encores/Manhattan
DYEAR=1900
DGENRE=
TTITLE0=Come Prima (More Than Ever)
TTITLE1=La Vie En Rose
TTITLE2=Under Paris Skies (Sous Le Ciel De Paris)
TTITLE3=Oh, My Papa
TTITLE4=April In Portugal
TTITLE5=Arrivederci, Roma
TTITLE6=Anema E Core
TTITLE7=La Mer (Beyond The Sea)
TTITLE8=I Only Know I Love You (Na Voce, No Citarra, E'o Poco E'Luna)
TTITLE9=Autumn Leaves (Les Feuilles Mortes)
TTITLE10=Answer Me, My Love (Mutterlein)
TTITLE11=Poppa Piccolino (Papaveri E Papere)
TTITLE12=Give My Regards To Broadway
TTITLE13=Autumn In New York
TTITLE14=The Bowery
TTITLE15=Harlem Nocturne
TTITLE16=Slaughter On Tenth Avenue
TTITLE17=Manhattan Serenade
TTITLE18=Take The A Train
TTITLE19=Manhattan Lullaby
TTITLE20=Maria/Somewhere
TTITLE21=The Belle Of New York
TTITLE22=Tenement Symphony
EXTD=
EXTT0=
EXTT1=
EXTT2=
EXTT3=
EXTT4=
EXTT5=
EXTT6=
EXTT7=
EXTT8=
EXTT9=
EXTT10=
EXTT11=
EXTT12=
EXTT13=
EXTT14=
EXTT15=
EXTT16=
EXTT17=
EXTT18=
EXTT19=
EXTT20=
EXTT21=
EXTT22=
PLAYORDER=
